<mxfile host="app.diagrams.net" modified="2021-12-12T23:52:43.536Z" agent="5.0 (Windows)" etag="dHaYWDNXq1lJ_mwFEAL6" version="15.9.4" type="github">
  <diagram id="NSv8YmZ8nnplUofg9PQK" name="Page-1">
    <mxGraphModel dx="1422" dy="752" grid="1" gridSize="10" guides="1" tooltips="1" connect="1" arrows="1" fold="1" page="1" pageScale="1" pageWidth="827" pageHeight="1169" math="0" shadow="0">
      <root>
        <mxCell id="0" />
        <mxCell id="1" parent="0" />
        <mxCell id="RZsINsyO2FMsUL0osNK9-1" value="" style="rounded=0;whiteSpace=wrap;html=1;" vertex="1" parent="1">
          <mxGeometry x="200" y="200" width="40" height="40" as="geometry" />
        </mxCell>
      </root>
    </mxGraphModel>
  </diagram>
</mxfile>
